<?xml version="1.0" standalone="no"?>
<!DOCTYPE svg PUBLIC "-//W3C//DTD SVG 20010904//EN"
 "http://www.w3.org/TR/2001/REC-SVG-20010904/DTD/svg10.dtd">
<svg version="1.0" xmlns="http://www.w3.org/2000/svg"
 width="1062.000000pt" height="851.000000pt" viewBox="0 0 1062.000000 851.000000"
 preserveAspectRatio="xMidYMid meet">

<g transform="translate(0.000000,851.000000) scale(0.100000,-0.100000)"
fill="#000000" stroke="none">
<path d="M7865 8189 c-27 -6 -70 -16 -95 -24 -25 -7 -83 -19 -130 -24 -166
-22 -325 -71 -460 -144 -384 -206 -602 -604 -699 -1272 -33 -223 -39 -287 -71
-705 -57 -756 -91 -1012 -167 -1289 l-26 -93 -31 5 c-217 38 -280 48 -391 59
-174 17 -739 17 -920 0 -550 -52 -993 -139 -1435 -282 -168 -54 -389 -159
-486 -231 -125 -92 -155 -188 -81 -257 l22 -21 230 60 c970 250 1467 328 2009
316 289 -6 416 -24 630 -89 343 -103 604 -294 793 -578 54 -81 93 -152 93
-171 0 -6 -21 7 -47 29 -167 139 -455 259 -788 328 -321 67 -573 88 -985 81
-320 -5 -453 -16 -690 -58 -245 -43 -475 -111 -620 -185 -122 -62 -122 -61
-28 -61 94 0 200 -24 273 -61 l50 -25 125 17 c574 79 1215 51 1791 -77 l106
-23 49 44 c192 175 510 136 761 -93 71 -64 162 -195 189 -272 23 -65 33 -59
85 52 77 164 109 330 109 559 0 385 -125 712 -309 805 -22 12 -41 24 -41 26 0
3 11 61 24 128 41 200 59 441 71 907 16 656 32 915 71 1165 63 408 175 671
359 843 116 109 280 181 445 198 l69 7 53 -48 c72 -65 138 -95 211 -95 71 0
122 24 171 81 78 92 101 250 51 349 -54 106 -177 149 -340 119z"/>
<path d="M3035 7304 c-299 -30 -456 -59 -614 -111 -184 -61 -358 -167 -433
-264 -275 -363 -65 -929 635 -1704 114 -127 367 -376 520 -512 109 -98 136
-115 103 -68 -27 40 -256 452 -256 462 0 25 328 194 537 277 78 31 144 56 146
56 10 0 246 -409 349 -605 32 -60 58 -103 58 -94 0 37 -134 480 -199 657 -17
46 -31 87 -31 92 0 15 213 74 410 115 47 10 88 21 92 24 6 6 -35 110 -82 206
-23 45 -28 50 -55 47 -45 -4 -204 -40 -349 -79 -70 -19 -129 -33 -131 -31 -11
15 -157 329 -154 332 4 5 244 58 404 91 44 9 81 17 82 18 3 3 -83 153 -108
188 l-16 23 -174 -23 c-96 -13 -205 -29 -244 -37 -38 -8 -74 -13 -80 -10 -6 2
-28 32 -50 67 -69 114 -235 360 -297 441 -33 44 -58 81 -56 83 9 9 198 36 326
47 78 6 142 14 142 17 0 4 -20 29 -45 58 -25 28 -45 54 -45 57 0 9 61 15 216
20 l151 4 49 -64 48 -64 314 0 314 0 -27 46 -27 46 179 -7 c98 -4 181 -10 184
-14 4 -3 12 -22 18 -42 l12 -37 132 -6 c473 -22 793 -38 1005 -51 134 -8 256
-15 270 -14 15 0 -49 16 -143 35 -711 144 -1425 253 -2005 305 -180 16 -329
22 -635 24 -220 2 -418 1 -440 -1z m-348 -606 c135 -138 373 -401 373 -414 0
-6 -87 -34 -192 -61 -177 -47 -344 -94 -381 -109 -21 -8 -32 17 -63 137 -21
85 -25 120 -22 203 3 89 7 108 35 166 17 36 40 74 50 85 28 31 93 85 101 85 5
0 49 -42 99 -92z m640 -745 c84 -110 173 -239 173 -251 0 -6 -17 -16 -37 -23
-21 -6 -110 -40 -198 -75 -150 -59 -202 -80 -300 -123 -88 -39 -155 -64 -158
-60 -9 10 -119 212 -166 304 l-51 100 31 13 c38 16 311 98 469 142 63 17 126
35 140 40 14 5 28 9 31 9 4 1 33 -34 66 -76z"/>
<path d="M4393 6461 c-72 -3 -134 -9 -138 -12 -3 -4 14 -46 38 -95 51 -104 24
-97 257 -65 85 12 190 26 233 30 43 5 80 11 83 14 3 2 -10 34 -28 71 l-32 66
-141 -2 c-77 -1 -199 -4 -272 -7z"/>
<path d="M5044 6443 c3 -16 9 -43 13 -61 l6 -34 166 9 c91 4 299 8 461 8 259
0 287 1 230 12 -154 28 -549 72 -794 88 l-88 5 6 -27z"/>
<path d="M4573 5930 c-57 -3 -105 -8 -107 -11 -3 -2 10 -62 27 -132 36 -147
18 -136 182 -112 55 8 173 20 262 26 l163 12 -7 26 c-3 14 -18 62 -32 106
l-26 80 -65 6 c-82 8 -264 8 -397 -1z"/>
<path d="M5164 5843 c4 -38 9 -80 12 -94 l5 -27 292 -4 c161 -2 294 -3 296 -1
12 8 -254 112 -364 142 -73 20 -217 51 -239 51 -4 0 -5 -30 -2 -67z"/>
<path d="M3390 3525 c-107 -30 -166 -79 -217 -179 -35 -68 -44 -204 -18 -292
112 -389 586 -635 858 -447 212 147 175 505 -77 741 -160 149 -385 222 -546
177z m380 -277 c63 -31 136 -108 168 -176 21 -45 27 -72 27 -129 0 -63 -3 -76
-30 -115 -84 -121 -240 -114 -371 16 -44 44 -67 77 -82 119 -53 140 -7 271
106 308 40 13 131 1 182 -23z"/>
<path d="M6063 3505 c-256 -72 -325 -374 -149 -649 96 -150 255 -268 419 -312
82 -22 215 -18 284 8 73 27 153 101 184 171 20 44 24 68 23 162 0 91 -4 120
-23 169 -41 103 -91 178 -175 261 -91 89 -179 145 -276 176 -86 27 -219 34
-287 14z m339 -255 c89 -25 192 -128 224 -223 55 -166 -26 -303 -179 -300
-245 5 -413 362 -235 496 49 37 118 47 190 27z"/>
<path d="M1255 2233 c-11 -2 -44 -11 -73 -19 -103 -29 -174 -126 -207 -281
-27 -126 -16 -199 37 -251 43 -41 96 -59 224 -73 l105 -13 -3 -35 c-3 -31 -7
-37 -33 -42 -56 -12 -192 -9 -280 6 -48 9 -89 14 -92 12 -2 -2 -21 -56 -42
-120 l-40 -117 37 -9 c59 -15 211 -31 297 -31 133 1 224 17 292 51 l62 32 208
-22 c114 -12 215 -21 224 -21 11 0 18 11 21 30 l5 30 -225 0 c-214 0 -224 1
-210 18 9 9 25 36 37 60 25 49 7 47 236 23 94 -10 171 -18 172 -17 2 2 6 17 9
34 l7 32 -198 0 c-176 0 -196 2 -191 16 3 9 9 33 12 55 6 37 8 39 43 39 20 0
95 -7 166 -15 184 -21 182 -21 187 15 l5 30 -192 0 -192 0 -10 58 c-6 31 -9
59 -7 61 1 2 94 -6 206 -17 111 -12 204 -19 206 -18 1 2 4 16 5 32 l2 29 -215
-4 -216 -3 -29 24 c-17 14 -45 33 -63 42 -39 20 -166 46 -223 46 -39 0 -39 0
-39 39 0 40 0 40 47 47 26 4 92 3 147 -1 173 -13 157 -16 173 33 18 51 0 49
261 21 107 -11 196 -19 197 -17 2 2 6 15 10 31 l7 27 -226 0 c-124 0 -226 3
-226 7 0 3 8 30 17 59 9 30 14 56 11 59 -23 24 -367 45 -443 28z"/>
<path d="M491 2216 c2 -2 119 -16 260 -30 l256 -27 33 31 32 30 -293 0 c-161
0 -290 -2 -288 -4z"/>
<path d="M8123 2106 c-114 -29 -169 -92 -205 -239 -25 -101 -19 -162 19 -207
42 -50 71 -60 251 -86 27 -4 33 -9 30 -27 -3 -21 -9 -22 -105 -25 -64 -2 -125
3 -165 12 -35 8 -63 14 -64 13 -1 -1 -17 -50 -37 -109 l-35 -108 41 -12 c28
-9 108 -13 237 -13 204 0 227 4 282 52 14 13 48 11 278 -12 144 -15 263 -25
265 -23 2 1 6 15 10 31 l7 27 -261 0 -260 0 32 63 c17 34 33 63 33 65 1 1 93
-6 205 -18 112 -11 218 -21 234 -23 27 -2 30 1 33 31 l3 32 -235 0 -235 0 6
53 c3 28 9 56 13 60 4 5 103 -1 219 -13 117 -12 215 -20 218 -17 3 4 3 18 -1
32 l-6 25 -218 0 -218 0 -12 34 c-7 19 -29 48 -48 65 -43 38 -59 38 241 6 126
-13 231 -22 233 -20 2 2 1 16 -2 32 l-7 29 -272 -1 c-323 0 -447 14 -447 51 0
20 7 23 53 29 46 6 209 -9 228 -21 4 -2 10 9 14 26 8 36 -3 35 222 13 95 -9
175 -14 178 -11 3 3 3 17 -1 32 l-6 26 -184 0 c-101 0 -184 4 -184 8 0 20 33
102 41 102 5 0 75 -7 155 -16 80 -9 148 -14 150 -11 3 3 2 16 -1 30 l-7 25
-211 6 c-117 3 -266 8 -332 11 -81 3 -137 0 -172 -9z"/>
<path d="M9249 1963 c-34 -79 -65 -140 -69 -136 -4 4 -13 58 -19 118 -19 174
-1 155 -146 155 -69 0 -125 -3 -125 -7 0 -5 25 -129 57 -277 62 -294 60 -267
27 -468 l-7 -38 127 0 c94 0 126 3 126 13 0 6 9 59 19 117 18 105 19 106 163
365 80 143 150 270 157 283 l12 23 -130 -2 -129 -1 -63 -145z"/>
<path d="M3530 2090 c-67 -14 -146 -57 -179 -96 -64 -79 -109 -208 -130 -376
-19 -161 15 -262 104 -307 42 -22 65 -26 161 -30 119 -3 196 11 262 49 32 19
35 19 265 -5 293 -31 274 -32 279 5 l5 30 -256 0 -255 0 26 28 c13 15 34 43
46 62 l21 36 213 -22 c117 -11 214 -20 215 -19 2 1 6 16 9 33 l7 32 -217 0
c-119 0 -216 4 -216 8 0 7 30 103 34 109 1 1 82 -7 181 -17 244 -26 235 -27
235 10 l0 30 -205 0 -205 0 6 58 c4 31 8 59 10 61 2 2 94 -6 206 -17 111 -12
204 -19 206 -18 1 2 4 16 5 32 l2 29 -207 -4 -208 -4 0 67 0 67 48 -6 c136
-16 328 -35 357 -35 29 0 33 4 37 30 l5 30 -227 0 -227 0 -25 47 c-19 38 -35
54 -80 76 -49 25 -69 30 -159 33 -57 2 -124 -1 -149 -6z m141 -389 c-19 -106
-34 -169 -45 -179 -11 -12 -39 -18 -92 -20 -74 -4 -75 -4 -70 19 3 13 17 91
31 173 13 82 29 154 35 160 12 12 150 25 162 16 4 -3 -5 -79 -21 -169z"/>
<path d="M5948 2093 l-136 -4 -16 -92 c-48 -271 -116 -676 -116 -686 0 -8 76
-11 260 -11 l260 0 10 25 c7 20 15 24 32 21 61 -13 341 -37 348 -29 4 4 11 18
15 31 l6 22 -196 0 -197 0 6 48 c13 86 -9 81 220 57 l205 -21 10 24 c6 12 11
27 11 32 0 6 -135 10 -350 10 -391 0 -357 -7 -344 73 l7 37 112 0 c65 0 115 4
117 10 2 6 94 0 248 -16 232 -24 245 -24 257 -8 32 43 27 44 -247 44 -203 0
-259 3 -256 13 3 6 7 31 10 55 l6 42 -111 0 -112 0 7 38 c3 20 6 43 6 50 0 9
32 12 124 12 l124 0 12 35 c6 19 17 35 23 35 7 0 126 -12 266 -26 245 -26 255
-26 268 -8 32 43 28 44 -266 44 l-279 0 19 61 c10 33 19 67 19 75 0 15 -12 15
-382 7z"/>
<path d="M6971 2090 c-4 -3 -80 -180 -169 -395 l-161 -390 121 -3 c71 -1 125
2 132 8 7 5 18 28 25 49 19 64 31 71 126 71 l84 0 6 -47 c3 -27 7 -55 8 -63 2
-12 24 -15 127 -15 122 0 125 1 128 23 4 27 10 27 187 7 176 -20 171 -20 184
15 l10 30 -195 0 -194 0 0 66 c0 57 2 65 18 60 9 -3 102 -13 205 -22 201 -19
206 -19 207 29 0 16 -17 17 -219 17 l-219 0 -4 63 c-3 34 -4 64 -2 66 1 1 117
-9 256 -23 139 -14 256 -26 261 -26 4 0 1 14 -8 30 l-16 30 -248 0 -248 0 -6
62 c-3 35 -4 64 -2 66 1 2 110 -8 241 -22 251 -26 257 -26 252 19 -3 20 -9 20
-249 16 l-246 -4 -7 68 c-4 37 -5 69 -4 71 2 1 105 -8 228 -21 268 -29 300
-30 300 -11 0 8 3 21 6 30 6 14 -22 16 -264 16 l-271 0 -7 71 -7 70 -179 -3
c-99 -2 -183 -5 -187 -8z m159 -335 l0 -115 -55 0 -55 0 21 53 c12 28 27 68
34 87 28 77 35 90 45 90 6 0 10 -43 10 -115z"/>
<path d="M7465 2093 c17 -3 128 -15 247 -27 l218 -22 27 28 27 28 -275 -1
c-151 -1 -260 -4 -244 -6z"/>
<path d="M2294 2082 l-122 -3 -11 -62 c-22 -118 -121 -708 -121 -717 0 -6 52
-10 124 -10 l123 0 23 140 23 140 83 0 c98 0 92 14 64 -150 -11 -63 -20 -119
-20 -123 0 -4 56 -7 124 -6 l125 2 11 66 c6 36 13 81 16 99 4 17 11 32 18 32
6 0 94 -9 196 -20 236 -25 220 -26 220 10 l0 30 -211 0 -212 0 7 53 c4 28 11
56 15 60 7 7 222 -10 359 -29 41 -5 42 -5 42 25 l0 31 -201 0 -201 0 6 28 c3
15 8 43 11 62 l6 36 195 -20 c209 -21 213 -21 214 27 0 17 -11 18 -201 11
l-201 -7 7 64 c4 35 9 66 11 68 2 2 95 -5 206 -16 112 -11 206 -18 209 -14 4
3 10 16 14 29 l6 22 -216 0 -217 0 5 23 c3 12 9 46 13 75 l7 52 -121 0 c-67 0
-123 -4 -126 -9 -3 -4 -15 -67 -27 -140 l-22 -131 -84 0 c-98 0 -92 -13 -62
149 11 62 19 115 17 119 -2 4 -58 6 -124 4z"/>
<path d="M4598 2083 l-127 -4 -5 -32 c-3 -18 -15 -84 -26 -147 -56 -327 -100
-591 -100 -600 0 -6 47 -10 124 -10 l124 0 7 48 c4 26 11 68 16 93 l10 47 112
3 c103 4 116 6 167 35 101 57 163 187 164 344 1 101 -18 154 -67 187 -41 28
-120 44 -206 41 -36 -1 -123 -4 -193 -5z m187 -226 c16 -13 17 -19 6 -79 -7
-35 -16 -70 -21 -78 -4 -7 -31 -15 -59 -18 -45 -4 -51 -2 -51 14 0 23 19 144
25 162 6 16 76 16 100 -1z"/>
<path d="M5469 2059 c150 -17 275 -28 277 -27 1 2 5 15 9 31 l7 27 -283 -1
-284 -1 274 -29z"/>
<path d="M6405 2083 c22 -3 139 -15 260 -28 121 -13 223 -20 226 -17 4 4 10
17 14 30 l6 22 -273 -2 c-150 -1 -255 -3 -233 -5z"/>
<path d="M3065 2065 c232 -27 257 -28 285 -5 l25 20 -210 -2 -210 -1 110 -12z"/>
<path d="M3875 2074 c42 -7 528 -55 530 -52 2 2 6 15 10 31 l7 27 -283 -1
c-156 -1 -275 -3 -264 -5z"/>
<path d="M425 2064 c74 -13 511 -52 516 -46 4 4 10 17 14 30 l6 22 -278 -1
c-153 -1 -269 -3 -258 -5z"/>
<path d="M5160 1944 c23 -6 505 -54 538 -54 25 0 30 4 34 30 l5 30 -296 -1
c-163 -1 -289 -3 -281 -5z"/>
<path d="M1750 1910 c140 -16 274 -29 296 -29 39 -1 42 1 46 29 l5 30 -301 -1
-301 -1 255 -28z"/>
<path d="M341 1926 c8 -8 550 -58 564 -52 8 3 15 17 15 31 l0 25 -292 0 c-160
0 -289 -2 -287 -4z"/>
<path d="M5345 1800 l-180 -5 265 -27 c145 -15 265 -26 267 -24 2 1 6 17 9 34
l7 32 -94 -2 c-52 -1 -175 -5 -274 -8z"/>
<path d="M6410 1800 l-155 -5 140 -14 c77 -7 192 -19 255 -26 63 -8 118 -11
122 -7 4 4 10 19 13 35 l7 27 -113 -2 c-63 -1 -184 -5 -269 -8z"/>
<path d="M565 1781 l-170 -6 230 -23 c127 -13 245 -26 263 -29 33 -5 33 -5 30
28 l-3 34 -90 1 c-49 0 -166 -2 -260 -5z"/>
<path d="M5310 1635 c118 -13 250 -26 293 -30 l77 -7 0 31 0 31 -292 -1 -293
-1 215 -23z"/>
<path d="M685 1615 c149 -13 302 -26 340 -29 l70 -5 -39 14 c-22 9 -47 22 -56
30 -14 13 -62 15 -301 14 l-284 -1 270 -23z"/>
<path d="M5083 1513 c9 -2 23 -2 30 0 6 3 -1 5 -18 5 -16 0 -22 -2 -12 -5z"/>
<path d="M5130 1512 c0 -6 510 -63 517 -57 2 1 6 16 9 33 l7 32 -267 0 c-146
0 -266 -3 -266 -8z"/>
<path d="M361 1496 c5 -6 418 -56 457 -56 29 0 42 14 42 46 0 12 -41 14 -252
14 -138 0 -249 -2 -247 -4z"/>
<path d="M5075 1364 c28 -5 512 -54 534 -54 13 0 20 9 23 30 l5 30 -291 -1
c-160 -1 -282 -3 -271 -5z"/>
<path d="M2955 1340 c88 -10 187 -21 219 -25 l59 -6 -15 23 c-15 23 -18 23
-219 24 l-204 2 160 -18z"/>
<path d="M505 1325 c94 -12 198 -25 231 -29 l62 -7 10 31 11 30 -242 -1 -242
-1 170 -23z"/>
<path d="M5303 1083 c-28 -5 -83 -88 -100 -151 -21 -75 -42 -194 -43 -238 0
-63 21 -156 43 -187 11 -16 38 -42 60 -58 63 -45 126 -38 185 21 37 36 46 94
15 88 -10 -2 -23 -13 -29 -26 -23 -46 -46 -62 -90 -62 -46 0 -60 9 -94 65 -21
34 -22 44 -17 158 9 179 15 207 70 314 25 48 118 38 138 -15 12 -31 11 -99 0
-140 -7 -23 -6 -41 1 -58 27 -59 59 -3 61 108 2 99 -24 155 -79 174 -38 13
-77 16 -121 7z"/>
<path d="M3836 1068 c-2 -7 -16 -105 -31 -218 -22 -162 -33 -216 -54 -259
l-26 -54 -6 34 c-4 18 -3 58 2 89 16 96 13 119 -16 126 -14 4 -28 4 -31 2 -2
-3 -13 -38 -25 -79 -38 -139 -39 -140 -35 -58 4 74 -6 118 -30 126 -21 7 -51
-33 -58 -77 -4 -25 -14 -63 -21 -85 -11 -33 -13 -36 -14 -14 -1 14 4 52 10 84
9 49 8 60 -5 74 -26 25 -51 2 -51 -45 0 -22 -3 -43 -6 -49 -4 -5 -12 -26 -18
-46 -7 -20 -23 -50 -37 -65 l-25 -29 -19 24 c-24 28 -27 71 -5 71 21 0 52 55
66 116 10 46 10 55 -7 78 -38 51 -75 26 -104 -70 -42 -139 -52 -168 -65 -180
-10 -11 -14 -9 -19 9 -5 20 8 142 20 179 6 20 -35 44 -58 35 -7 -2 -24 -50
-37 -106 -13 -55 -26 -101 -28 -101 -3 0 -3 35 -1 78 7 93 -2 122 -36 122 -27
0 -30 -7 -66 -147 -6 -24 -13 -43 -16 -43 -2 0 -2 40 2 90 6 80 5 90 -11 96
-34 14 -43 -18 -38 -134 3 -59 10 -117 14 -130 20 -53 67 0 94 106 l14 57 -3
-64 c-5 -70 6 -111 27 -111 17 0 48 33 64 68 10 25 11 25 12 5 1 -32 11 -52
32 -63 24 -13 69 7 69 31 0 32 16 29 35 -7 32 -60 89 -58 127 4 l22 37 9 -43
c7 -35 12 -42 31 -42 25 0 46 36 71 125 l14 50 -3 -78 c-3 -68 -1 -79 16 -88
25 -13 45 3 69 56 l19 40 0 -32 c0 -30 28 -73 48 -73 17 0 52 32 52 48 0 13 4
11 16 -6 9 -13 22 -21 28 -19 7 3 18 -4 24 -14 15 -24 44 -24 64 -1 38 45 68
213 48 272 -16 49 -42 59 -80 32 l-27 -20 13 71 c7 40 20 101 29 136 9 35 14
70 11 77 -7 17 -55 18 -60 2z m-469 -314 c-6 -36 -35 -90 -43 -81 -6 5 35 117
43 117 3 0 3 -16 0 -36z m541 -66 c-3 -46 -13 -101 -22 -123 -16 -38 -18 -39
-32 -21 -19 27 -18 65 7 138 11 35 22 69 24 76 3 6 10 12 16 12 8 0 10 -24 7
-82z"/>
<path d="M4837 1036 c-14 -14 -26 -78 -47 -251 -13 -100 -27 -138 -53 -143
-14 -3 -17 5 -17 54 0 78 -28 124 -76 124 -19 0 -37 0 -41 1 -17 1 -44 -157
-38 -229 5 -82 16 -108 45 -117 36 -11 57 5 83 63 22 47 30 57 52 59 26 1 27
0 21 -42 -4 -23 -9 -106 -11 -184 -5 -154 0 -177 50 -199 19 -9 27 -8 39 4 34
34 50 162 33 272 -6 41 -5 52 6 52 8 0 21 15 30 33 21 43 57 162 57 188 0 33
-24 16 -31 -22 -10 -45 -61 -148 -75 -149 -6 0 -19 17 -28 38 -16 36 -16 45 4
188 22 159 34 209 57 236 13 15 12 18 -6 27 -26 14 -37 14 -54 -3z m-172 -357
c6 -78 5 -95 -11 -125 -10 -19 -21 -34 -25 -34 -8 0 -19 52 -19 87 0 37 31
163 40 163 4 0 11 -41 15 -91z m179 -319 c1 -84 -19 -165 -34 -140 -10 16 -12
159 -4 233 l7 62 15 -35 c9 -21 15 -69 16 -120z"/>
<path d="M6590 1038 c-111 -8 -133 -19 -123 -58 6 -23 16 -25 45 -9 11 6 22 8
25 6 10 -11 -28 -222 -42 -233 -18 -14 -20 -54 -2 -54 9 0 11 -27 9 -110 -3
-106 -2 -111 22 -135 26 -26 62 -31 125 -19 25 5 31 12 31 31 0 23 -2 24 -40
18 -71 -12 -80 -4 -80 78 0 40 3 89 6 110 6 34 9 37 38 37 66 0 77 47 13 52
l-43 3 12 65 c6 36 18 88 25 117 13 50 15 52 53 59 22 3 61 6 88 6 47 0 69 12
52 28 -15 13 -105 17 -214 8z"/>
<path d="M6974 965 c-4 -8 -4 -22 0 -30 6 -17 -19 -45 -40 -45 -22 0 -16 -24
9 -35 20 -9 22 -16 19 -65 -2 -30 -8 -74 -13 -98 -12 -57 -61 -182 -71 -182
-17 0 -20 58 -9 149 12 88 12 96 -5 108 -36 27 -54 8 -64 -68 -5 -35 -17 -86
-27 -114 l-18 -50 -3 57 c-2 32 1 74 7 93 8 30 7 37 -6 42 -9 3 -23 2 -32 -4
-13 -9 -15 -27 -13 -114 4 -119 7 -135 29 -143 28 -11 53 4 54 32 0 15 6 42
13 61 l12 33 13 -66 c12 -62 15 -66 41 -66 32 0 47 15 66 67 8 23 13 30 14 18
0 -32 38 -85 59 -85 10 0 28 14 38 30 l19 31 15 -28 c8 -16 21 -33 29 -40 20
-16 56 -16 70 0 6 6 19 22 29 35 10 12 31 63 47 112 15 50 31 90 35 90 4 0 9
-45 11 -99 2 -80 7 -103 22 -120 25 -28 60 -27 75 2 10 19 11 16 6 -23 -18
-168 -18 -190 0 -236 12 -32 22 -44 34 -42 10 2 15 11 13 23 -11 65 -13 143
-7 200 l7 64 24 -15 c22 -15 26 -15 49 0 36 24 66 90 76 170 13 101 5 134 -38
154 -35 17 -35 17 -59 -13 -22 -27 -24 -28 -24 -9 0 23 -20 37 -36 26 -5 -4
-9 -23 -10 -42 -1 -70 -67 -252 -84 -234 -5 5 -5 42 0 84 14 117 14 118 -26
142 -24 14 -35 27 -33 42 4 51 -1 66 -21 66 -30 0 -43 -33 -29 -79 9 -31 8
-49 -5 -95 -27 -92 -66 -166 -87 -166 -40 0 -54 79 -16 95 26 12 54 66 63 124
5 34 3 43 -19 65 -15 14 -33 26 -42 26 -21 0 -47 -61 -75 -170 -26 -102 -38
-126 -53 -111 -11 11 -11 108 1 246 l7 80 40 3 c62 4 85 11 85 27 0 10 -15 15
-52 17 -49 3 -53 5 -50 27 4 43 -51 82 -64 46z m176 -284 c-6 -24 -17 -41 -25
-41 -15 0 -15 2 16 78 16 38 22 12 9 -37z m402 -66 c-8 -79 -13 -100 -33 -121
-19 -21 -24 -22 -31 -9 -5 8 -8 21 -7 27 1 7 -1 20 -5 28 -7 17 37 165 56 188
22 26 29 -14 20 -113z"/>
<path d="M4176 855 c-19 -19 -19 -23 -5 -64 13 -36 3 -82 -32 -155 -10 -22
-19 -45 -19 -50 -1 -6 -12 -24 -26 -41 l-25 -30 -19 24 c-26 30 -26 67 -1 74
22 5 57 76 67 133 4 30 1 44 -14 62 -47 53 -91 4 -114 -125 -14 -82 -6 -132
28 -173 27 -32 52 -37 85 -19 21 11 92 152 104 208 12 54 25 23 25 -59 0 -110
17 -149 65 -150 25 0 70 85 86 159 5 25 12 59 15 74 6 24 4 28 -11 25 -13 -2
-23 -24 -37 -73 -23 -84 -49 -140 -63 -134 -11 4 -11 18 -2 127 6 69 5 73 -16
81 -33 13 -49 36 -42 63 4 16 0 29 -13 41 -18 17 -21 17 -36 2z m-106 -139
c-11 -33 -40 -69 -40 -49 0 6 10 35 22 64 24 58 38 45 18 -15z"/>
<path d="M7867 845 c-23 -17 -21 -41 4 -59 30 -21 49 -10 49 29 0 37 -25 51
-53 30z"/>
<path d="M2519 793 c-52 -121 -60 -225 -22 -278 24 -32 47 -31 73 2 20 26 23
27 34 10 45 -61 107 37 140 221 11 63 -11 30 -54 -78 -24 -63 -48 -109 -54
-107 -6 2 -11 30 -11 68 0 61 -7 89 -24 89 -4 0 -15 -35 -25 -78 -20 -89 -29
-108 -45 -98 -18 11 -11 95 12 166 23 67 40 83 45 42 5 -34 26 -21 30 18 3 26
-2 38 -20 52 -38 29 -57 23 -79 -29z"/>
<path d="M6060 820 c-8 -15 -8 -30 0 -54 9 -27 7 -48 -9 -107 -19 -76 -49
-139 -65 -139 -5 0 -6 31 -3 70 5 62 4 71 -13 80 -28 15 -30 13 -31 -32 0 -51
-28 -129 -48 -136 -12 -4 -13 10 -8 80 10 127 49 201 67 127 6 -23 7 -23 17
-4 14 29 1 67 -29 85 -24 13 -29 13 -45 -2 -33 -30 -54 -109 -56 -208 -2 -89
-1 -93 24 -112 22 -16 30 -18 48 -9 11 7 21 18 21 26 0 19 14 19 30 0 17 -21
59 -19 66 3 3 9 17 38 30 63 13 25 29 69 35 97 7 33 16 52 25 52 11 0 14 -20
14 -100 0 -87 3 -103 20 -120 26 -26 54 -25 68 3 23 46 71 175 78 211 6 35 5
38 -17 34 -19 -2 -25 -11 -31 -48 -9 -53 -56 -170 -69 -170 -11 0 -11 -2 1 99
10 80 10 85 -11 107 -12 13 -31 26 -41 30 -13 4 -18 14 -17 32 4 49 -1 62 -21
62 -10 0 -24 -9 -30 -20z"/>
<path d="M7663 811 c-7 -11 -9 -41 -6 -77 3 -32 1 -76 -5 -96 -7 -25 -7 -40
-1 -44 14 -8 37 25 45 64 11 54 24 17 24 -67 0 -100 15 -141 51 -141 17 0 34
8 43 22 9 12 17 20 18 17 2 -2 8 -13 14 -24 17 -31 58 -31 83 1 19 25 21 25
21 6 0 -26 31 -44 67 -40 18 2 32 14 45 40 19 35 19 39 1 115 -10 43 -17 104
-17 136 l0 57 -32 0 c-29 0 -32 -3 -37 -37 -14 -86 -26 -127 -53 -188 -16 -35
-32 -65 -36 -65 -14 0 -9 102 8 168 14 54 14 66 3 73 -32 20 -46 10 -53 -38
-7 -53 -49 -180 -64 -195 -19 -19 -23 12 -12 87 14 89 8 110 -32 131 -27 14
-30 20 -25 49 4 24 1 38 -12 49 -22 20 -24 20 -38 -3z m360 -308 c-7 -29 -39
-30 -48 -3 -3 11 -11 20 -16 20 -15 0 -10 16 16 46 14 16 25 36 26 44 0 8 7
-7 14 -35 8 -27 12 -60 8 -72z"/>
<path d="M5536 767 c-23 -62 -39 -156 -32 -198 16 -101 77 -139 130 -83 24 26
24 26 35 6 30 -56 94 -45 111 17 14 52 12 81 -11 147 -12 35 -19 77 -17 104 3
42 1 45 -22 48 -24 3 -26 -1 -41 -81 -15 -79 -69 -210 -92 -224 -16 -10 -47
36 -47 68 0 22 5 29 19 29 23 0 57 65 67 126 5 35 3 45 -15 63 -35 35 -66 28
-85 -22z m59 -39 c-11 -58 -16 -68 -30 -68 -15 0 -13 11 12 68 7 17 16 32 19
32 3 0 3 -15 -1 -32z m140 -118 c10 -47 -4 -112 -23 -108 -30 6 -37 51 -16
101 21 50 29 52 39 7z"/>
<path d="M8150 741 c-24 -49 -45 -167 -36 -213 8 -46 52 -98 82 -98 27 0 56
25 78 68 16 31 56 171 56 197 0 28 -18 15 -24 -17 -3 -18 -17 -55 -31 -82 -14
-27 -25 -54 -25 -60 -1 -6 -12 -24 -26 -41 l-25 -30 -19 24 c-27 31 -27 81 -1
81 22 0 56 62 66 123 9 47 -14 87 -50 87 -19 0 -30 -10 -45 -39z m46 -85 c-8
-20 -20 -36 -26 -36 -12 0 -8 21 18 79 14 31 17 33 20 15 2 -12 -4 -38 -12
-58z"/>
</g>
</svg>
